<svg width="98" height="93" viewBox="0 0 98 93" fill="none" xmlns="http://www.w3.org/2000/svg">
<path fill-rule="evenodd" clip-rule="evenodd" d="M39.3796 59.1184L28.8018 6.71024C32.6671 4.8095 35.5656 4.03944 38.2834 4.08225C41.0524 4.12587 43.8575 5.0151 47.5411 6.84438V59.1184H39.3796ZM51.5411 59.1184V6.88727C55.5173 5.06925 58.4559 4.32387 61.1782 4.36104C63.8055 4.39691 66.4234 5.16337 69.7797 6.74107L59.3986 59.1184H51.5411ZM63.4764 59.1184L73.8054 7.00398C78.0815 5.05721 81.2121 4.21693 84.0777 4.2334C86.7163 4.24856 89.3152 4.99152 92.5648 6.59083L73.6359 59.1184H63.4764ZM84.1007 0.233464C80.3887 0.212137 76.6216 1.31893 72.0669 3.40045C68.2063 1.53025 64.834 0.410581 61.2329 0.361412C57.6099 0.311944 53.971 1.34793 49.575 3.38896C45.5496 1.36587 42.0461 0.14103 38.3464 0.0827482C34.6144 0.0239579 30.9182 1.15398 26.5046 3.38613C22.1731 1.3709 18.4838 0.335004 14.6584 0.367781C10.5912 0.402629 6.58826 1.64532 1.73335 3.78873L0 4.554L0.670541 6.32614L21.6705 61.8261L22.1595 63.1184H23.5411H49.5411H75.0411H76.4463L76.9227 61.7964L96.9227 6.29639L97.5074 4.67384L95.9884 3.85693C91.736 1.56992 88.0747 0.256297 84.1007 0.233464ZM14.6927 4.36763C17.706 4.34181 20.7767 5.13724 24.7786 6.9949L35.2989 59.1184H24.9227L5.0908 6.70536C8.90012 5.14496 11.8549 4.39195 14.6927 4.36763ZM22.2957 65.1183H26.6539C28.5349 75.3588 37.5068 83.1183 48.2911 83.1183C59.0754 83.1183 68.0473 75.3588 69.9284 65.1183H75.2865C75.2896 65.2846 75.2911 65.4513 75.2911 65.6183C75.2911 80.2539 63.4267 92.1183 48.7911 92.1183C34.1556 92.1183 22.2911 80.2539 22.2911 65.6183C22.2911 65.4513 22.2927 65.2846 22.2957 65.1183ZM48.2911 79.1183C39.7248 79.1183 32.5561 73.1343 30.7371 65.1183H65.8451C64.0262 73.1343 56.8575 79.1183 48.2911 79.1183Z" fill="#3798A6"/>
</svg>
