<svg width="76" height="92" viewBox="0 0 76 92" fill="none" xmlns="http://www.w3.org/2000/svg">
<path d="M69.6667 91.0806H6.33333C4.55208 91.0806 3.05122 90.5326 1.83073 89.4365C0.610243 88.3405 0 86.9927 0 85.3931V79.7056C0 78.1652 0.610243 76.8322 1.83073 75.7065C3.05122 74.5809 4.55208 74.0181 6.33333 74.0181C11.5451 74.0181 16.0148 71.3669 19.7422 66.0645C23.4696 60.762 25.3333 53.9341 25.3333 45.5806C22.3646 45.5806 19.5113 44.9141 16.7734 43.5811C14.0356 42.248 12.6667 41.0187 12.6667 39.8931C12.6667 38.6489 14.3819 37.5233 17.8125 36.5161C14.3819 32.4282 12.6667 27.8664 12.6667 22.8306C12.6667 16.5506 15.1406 11.189 20.0885 6.74561C25.0365 2.30225 31.0069 0.0805664 38 0.0805664C44.9931 0.0805664 50.9635 2.30225 55.9115 6.74561C60.8594 11.189 63.3333 16.5506 63.3333 22.8306C63.3333 27.8664 61.6181 32.4282 58.1875 36.5161C61.6181 37.5233 63.3333 38.6489 63.3333 39.8931C63.3333 41.0187 61.9644 42.248 59.2266 43.5811C56.4887 44.9141 53.6354 45.5806 50.6667 45.5806C50.6667 53.9341 52.5304 60.762 56.2578 66.0645C59.9852 71.3669 64.4549 74.0181 69.6667 74.0181C71.3819 74.0181 72.8663 74.5809 74.1198 75.7065C75.3733 76.8322 76 78.1652 76 79.7056V85.3931C76 86.9927 75.3898 88.3405 74.1693 89.4365C72.9488 90.5326 71.4479 91.0806 69.6667 91.0806Z" fill="#3798A6"/>
</svg>
