<svg width="89" height="88" viewBox="0 0 89 88" fill="none" xmlns="http://www.w3.org/2000/svg">
<path d="M44.5 0.205566C20.3076 0.205566 0.625 19.8881 0.625 44.0806C0.625 68.273 20.3076 87.9556 44.5 87.9556C68.6924 87.9556 88.375 68.273 88.375 44.0806C88.375 19.8881 68.6924 0.205566 44.5 0.205566ZM74.1663 62.6599H64.3007L60.738 56.5428L63.902 43.7937L70.1901 41.1274L79.1866 48.871C78.5129 53.772 76.8014 58.473 74.1663 62.6599ZM18.8099 41.1274L25.0938 43.8L28.2578 56.5491L24.6951 62.6663H14.8337C12.1994 58.4812 10.4879 53.7825 9.81344 48.8836L18.8099 41.1274ZM71.3481 21.6221L67.4648 32.6604L60.9004 35.4406L48.9297 25.4042V18.0213L58.1814 11.8578C63.2782 14.0328 67.7895 17.3805 71.3481 21.6284V21.6221ZM30.8186 11.8493L40.0703 18.0129V25.3957L28.0996 35.4385L21.5352 32.6583L17.6519 21.6199C21.2105 17.372 25.7218 14.0243 30.8186 11.8493ZM36.3958 78.147L32.1559 67.4609L35.5309 61.658H53.4606L56.8483 67.4651L52.6295 78.1385C47.2901 79.4098 41.7268 79.4098 36.3873 78.1385L36.3958 78.147Z" fill="#3798A6"/>
</svg>
