<svg width="109" height="109" viewBox="0 0 109 109" fill="none" xmlns="http://www.w3.org/2000/svg">
<path d="M47.6035 29.0845C48.2244 28.7964 48.918 28.7032 49.5929 28.8173C50.2678 28.9314 50.8922 29.2473 51.3839 29.7234L58.3202 37.1423L36.793 56.1358C38.8083 56.5365 40.2329 57.1991 41.4614 57.7722C43.1025 58.5381 44.3987 59.1433 47.2658 59.1433C50.1329 59.1433 51.4293 58.5383 53.0706 57.7722L53.1031 57.757C56.2735 56.2791 59.2156 54.354 61.8395 52.0406L67.5449 47.0064L78.7035 58.9397C80.0069 58.6999 80.9312 58.2711 81.9992 57.7728C83.1438 57.2064 84.3374 56.7452 85.5655 56.3948L56.2688 25.0649L56.1901 24.9837C54.718 23.5181 52.832 22.5391 50.7862 22.1787C48.7405 21.8183 46.6334 22.0938 44.7491 22.9681L31.1348 29.3216L33.9892 35.4388L47.6035 29.0845Z" fill="#3798A6"/>
<path d="M78.9688 35.5181C83.1627 35.5181 86.5625 32.1182 86.5625 27.9243C86.5625 23.7304 83.1627 20.3306 78.9688 20.3306C74.7748 20.3306 71.375 23.7304 71.375 27.9243C71.375 32.1182 74.7748 35.5181 78.9688 35.5181Z" fill="#3798A6"/>
<path d="M90.66 79.3931C86.295 79.3931 83.9136 80.5043 82.0003 81.397C80.3588 82.1629 79.0624 82.7681 76.1947 82.7681C73.327 82.7681 72.031 82.1631 70.3897 81.397C68.4763 80.5043 66.0952 79.3931 61.7303 79.3931C57.3654 79.3931 54.9843 80.5045 53.0711 81.397C51.4298 82.1629 50.1336 82.7681 47.2663 82.7681C44.399 82.7681 43.103 82.1631 41.462 81.397C39.5488 80.5043 37.1677 79.3931 32.803 79.3931C28.4382 79.3931 26.057 80.5045 24.1438 81.397C22.5025 82.1629 21.2063 82.7681 18.339 82.7681C15.4717 82.7681 14.1755 82.1631 12.5342 81.397C10.621 80.5045 8.23972 79.3931 3.875 79.3931V86.1431C6.74227 86.1431 8.03848 86.748 9.67979 87.5142C11.593 88.4068 13.9743 89.5181 18.339 89.5181C22.7037 89.5181 25.085 88.4066 26.9982 87.5142C28.6395 86.7482 29.9357 86.1431 32.803 86.1431C35.6702 86.1431 36.9662 86.748 38.6073 87.5142C40.5205 88.4068 42.9016 89.5181 47.2663 89.5181C51.631 89.5181 54.0123 88.4066 55.9255 87.5142C57.5668 86.7482 58.8632 86.1431 61.7303 86.1431C64.5974 86.1431 65.894 86.748 67.5353 87.5142C69.4487 88.4068 71.8298 89.5181 76.1947 89.5181C80.5596 89.5181 82.9411 88.4068 84.8545 87.5142C86.4958 86.7482 87.7925 86.1431 90.66 86.1431C93.5274 86.1431 94.8241 86.748 96.4652 87.5142C98.3788 88.4071 100.76 89.5181 105.125 89.5181V82.7681C102.258 82.7681 100.961 82.1631 99.3198 81.397C97.4062 80.5043 95.0249 79.3931 90.66 79.3931Z" fill="#3798A6"/>
<path d="M104.555 65.884C102.079 65.8083 100.848 65.2354 99.3198 64.5222C97.4918 63.6692 95.2327 62.6195 91.2297 62.5271C91.0422 62.5229 90.8553 62.5181 90.6602 62.5181C90.4651 62.5181 90.2779 62.5229 90.0906 62.5271C86.0877 62.6195 83.8283 63.6692 82.0008 64.5222C80.4723 65.2354 79.2417 65.8089 76.7649 65.884C76.5816 65.8895 76.3928 65.8931 76.1953 65.8931C75.9979 65.8931 75.8089 65.8895 75.6258 65.884C73.1492 65.8083 71.9186 65.2354 70.3906 64.5222C68.5628 63.6694 66.3036 62.6197 62.3009 62.5271C62.1134 62.5229 61.9267 62.5181 61.7314 62.5181C61.536 62.5181 61.3493 62.5229 61.1618 62.5271C57.1591 62.6195 54.8997 63.6694 53.0722 64.5222C51.5441 65.2354 50.3135 65.8089 47.8371 65.884C47.6538 65.8895 47.465 65.8931 47.2676 65.8931C47.0702 65.8931 46.8814 65.8895 46.6981 65.884C44.2219 65.8083 42.9912 65.2354 41.4634 64.5222C39.6359 63.6694 37.3767 62.6195 33.3742 62.5271C33.2371 62.5234 33.1 62.5211 32.9629 62.5202C32.9091 62.5202 32.8574 62.5176 32.804 62.5176C32.6087 62.5176 32.4218 62.5225 32.2345 62.5267C28.232 62.6191 25.9726 63.6689 24.145 64.5218C22.6168 65.2349 21.3864 65.8085 18.91 65.8836C18.7267 65.8891 18.5379 65.8926 18.3405 65.8926C18.143 65.8926 17.9542 65.8891 17.7709 65.8836C15.2928 65.8087 14.0631 65.2354 12.534 64.522C10.7064 63.6691 8.44728 62.6193 4.44453 62.5269C4.25701 62.5227 4.07012 62.5179 3.875 62.5179V69.2679C6.74227 69.2679 8.03848 69.8728 9.67979 70.6389C11.593 71.5316 13.9743 72.6429 18.339 72.6429C22.7037 72.6429 25.085 71.5314 26.9982 70.6389C28.6395 69.873 29.9357 69.2679 32.803 69.2679C35.6702 69.2679 36.9662 69.8728 38.6073 70.6389C40.5205 71.5316 42.9016 72.6429 47.2663 72.6429C51.631 72.6429 54.0123 71.5314 55.9255 70.6389C57.5668 69.873 58.8632 69.2679 61.7303 69.2679C64.5974 69.2679 65.894 69.8728 67.5353 70.6389C69.4487 71.5316 71.8298 72.6429 76.1947 72.6429C80.5596 72.6429 82.9411 71.5316 84.8545 70.6389C86.4958 69.873 87.7925 69.2679 90.66 69.2679C93.5274 69.2679 94.8241 69.8728 96.4652 70.6389C98.3788 71.5318 100.76 72.6429 105.125 72.6429V65.8931C104.927 65.8931 104.738 65.8895 104.555 65.884Z" fill="#3798A6"/>
</svg>
